# xmcd
#
# Track frame offsets:
#	150
#	12507
#	23714
#	33977
#	48553
#	60525
#	69593
#	80733
#	89825
#	101446
#	114432
#	127480
#	138611
#	148964
#	162388
#	173640
#	182971
#	192927
#	205993
#	215025
#	225082
#	234183
#	247355
#	258188
#	267523
#	278070
#	292095
#	300833
#	311321
#	322055
#
# Disc length: 4435
#
# Revision: 3
# Processed by: cddbd v1.5.1PL0 Copyright (c) Steve Scherf et al.
# Submitted via: ExactAudioCopy v0.90a11
# Normalized: r2:DSETVAR1
#
DISCID=ca11511e
DTITLE=Various Artist - Hillbilly Jive with a Boogie Beat
DYEAR=1900
DGENRE=
TTITLE0=Pabst Blue Beer - Bob Williams and His Band
TTITLE1=Wild Wild Man From Tennessee - The Eagles
TTITLE2=I'm Off To The Races - Bill Franklin with the Skyline Boys
TTITLE3=Houn' Dog Boogie - Sheldon Gibbs and the Arizona Ranch Boys
TTITLE4=The Satellite Song - Charlie MacKinnon with the Downeasters
TTITLE5=You're A Luxury - Phil Brown with Bill Wood's Band
TTITLE6=It May Be Silly (But Ain't It Fun) - Little Herby
TTITLE7=Alabama Baby - Floyd and Lloyd the Armstrong Twins
TTITLE8=I'm Ragged But Right - Jerry Jericho with Ben Christian and his Texas Cowboys
TTITLE9=Gold Diggin' Mama - T.J. Skero and the Sunset Play Boys
TTITLE10=Catfish Wiggle - Lanky Hank Dawson
TTITLE11=Heart Stealer - Ray Wilson The Singing Sheriff with the Kentucky Wanderers
TTITLE12=Country Pickin' - Ray Lunsford
TTITLE13=Mandolin Boogie - Armstrong Twins
TTITLE14=Regal Boogie - Al Kahole and his Beer Drinkin' Buddies
TTITLE15=Beatel Um-Bum - The Nettles Sisters with the Rodeo Tune Wranglers
TTITLE16=Hillbilly Jive with a Boogie Beat - Reece Shipley and the Rainbow Valley Boys
TTITLE17=Steel Guitar Rag - Slim Rhodes and the Mountaineers
TTITLE18=I Guess I'm Girl Crazy - Chuck Kyles with Excel Country Music Makers
TTITLE19=Shoot Again Mr. Cupid - Joe Stuart
TTITLE20=Rockin' Rollin' Rythym - Charles Wayne and the Rattlesnake Ramblers
TTITLE21=Peachtree Cowboys - Peachtree Cowboy
TTITLE22=Milk Bucket Boogie - Reece Shipley and the Rainbow Valley Boys
TTITLE23=Admitting Defeat - Jimmy Settle with the Blue Grass Rangers
TTITLE24=The Girls I Left Behind - Bob Kinney and the Sidekicks
TTITLE25=River Boat Blues - Alton Guyon and his Boogie Blues Boys
TTITLE26=Move In A Little Closer - Curley Williams
TTITLE27=Cotton Pickin' Boogie - Slumber Nichol's Western Aces
TTITLE28=Rag Mop - Gail Daniels
TTITLE29=Your Turn To Cry - The Country Boys
EXTD=
EXTT0=
EXTT1=
EXTT2=
EXTT3=
EXTT4=
EXTT5=
EXTT6=
EXTT7=
EXTT8=
EXTT9=
EXTT10=
EXTT11=
EXTT12=
EXTT13=
EXTT14=
EXTT15=
EXTT16=
EXTT17=
EXTT18=
EXTT19=
EXTT20=
EXTT21=
EXTT22=
EXTT23=
EXTT24=
EXTT25=
EXTT26=
EXTT27=
EXTT28=
EXTT29=
PLAYORDER=
